HIERARCHY
ROOT Hips
{
	OFFSET -61.335590 92.211578 314.097412
	CHANNELS 6 Xposition Yposition Zposition Zrotation Yrotation Xrotation 
	JOINT LeftUpLeg
	{
		OFFSET 0.103454 1.857841 10.548502
		CHANNELS 3 Zrotation Yrotation Xrotation
		JOINT LeftLeg
		{
			OFFSET 43.500000 -0.000034 -0.000004
			CHANNELS 3 Zrotation Yrotation Xrotation
			JOINT LeftFoot
			{
				OFFSET 42.372192 0.000027 -0.000002
				CHANNELS 3 Zrotation Yrotation Xrotation
				JOINT LeftToe
				{
					OFFSET 17.300003 0.000001 0.000001
					CHANNELS 3 Zrotation Yrotation Xrotation
					End Site
					{
						OFFSET 0.000000 0.000000 0.000000
					}
				}
			}
		}
	}
	JOINT RightUpLeg
	{
		OFFSET 0.103461 1.857837 -10.548502
		CHANNELS 3 Zrotation Yrotation Xrotation
		JOINT RightLeg
		{
			OFFSET 43.500046 -0.000034 0.000013
			CHANNELS 3 Zrotation Yrotation Xrotation
			JOINT RightFoot
			{
				OFFSET 42.372261 0.000004 0.000013
				CHANNELS 3 Zrotation Yrotation Xrotation
				JOINT RightToe
				{
					OFFSET 17.299986 -0.000008 0.000013
					CHANNELS 3 Zrotation Yrotation Xrotation
					End Site
					{
						OFFSET 0.000000 0.000000 0.000000
					}
				}
			}
		}
	}
	JOINT Spine
	{
		OFFSET 6.901964 -2.603740 0.000003
		CHANNELS 3 Zrotation Yrotation Xrotation
		JOINT Spine1
		{
			OFFSET 12.588108 0.000020 -0.000003
			CHANNELS 3 Zrotation Yrotation Xrotation
			JOINT Spine2
			{
				OFFSET 12.343194 -0.000020 0.000000
				CHANNELS 3 Zrotation Yrotation Xrotation
				JOINT Neck
				{
					OFFSET 25.832893 -0.000004 0.000001
					CHANNELS 3 Zrotation Yrotation Xrotation
					JOINT Head
					{
						OFFSET 11.766617 0.000023 0.000000
						CHANNELS 3 Zrotation Yrotation Xrotation
						End Site
						{
							OFFSET 0.000000 0.000000 0.000000
						}
					}
				}
				JOINT LeftShoulder
				{
					OFFSET 19.745911 -1.480362 6.000106
					CHANNELS 3 Zrotation Yrotation Xrotation
					JOINT LeftArm
					{
						OFFSET 11.284124 -0.000010 -0.000029
						CHANNELS 3 Zrotation Yrotation Xrotation
						JOINT LeftForeArm
						{
							OFFSET 33.000050 0.000006 0.000043
							CHANNELS 3 Zrotation Yrotation Xrotation
							JOINT LeftHand
							{
								OFFSET 25.200006 0.000015 0.000002
								CHANNELS 3 Zrotation Yrotation Xrotation
								End Site
								{
									OFFSET 0.000000 0.000000 0.000000
								}
							}
						}
					}
				}
				JOINT RightShoulder
				{
					OFFSET 19.746103 -1.480366 -6.000076
					CHANNELS 3 Zrotation Yrotation Xrotation
					JOINT RightArm
					{
						OFFSET 11.284135 -0.000031 -0.000006
						CHANNELS 3 Zrotation Yrotation Xrotation
						JOINT RightForeArm
						{
							OFFSET 33.000095 0.000024 0.000006
							CHANNELS 3 Zrotation Yrotation Xrotation
							JOINT RightHand
							{
								OFFSET 25.199774 0.000153 0.000421
								CHANNELS 3 Zrotation Yrotation Xrotation
								End Site
								{
									OFFSET 0.000000 0.000000 0.000000
								}
							}
						}
					}
				}
			}
		}
	}
}
MOTION
Frames: 11
Frame Time: 0.033333
99.039726 88.181686 68.004356 87.606875 6.046969 91.766385 156.390882 -4.226201 179.772232 -13.574992 -1.001079 -6.238161 60.867709 1.915907 -6.619478 21.454550 0.003089 -0.000001 -164.053139 -1.973699 177.743953 -13.006752 5.620547 7.372705 87.535732 -5.150528 0.239801 21.454558 -0.003115 -0.000019 7.791366 -0.383688 2.319174 5.552406 -0.877623 4.617474 5.235401 -0.849620 4.622675 -0.466364 2.283226 2.775676 -18.731328 2.653697 2.264696 -146.951657 -72.116566 -35.392019 -0.216501 49.879068 43.725440 -26.609664 -11.590073 0.949394 10.608491 1.627913 31.867433 -162.285295 76.524217 19.549393 -23.093805 -56.275042 -22.952060 -40.316141 17.703225 -1.670316 5.636102 6.576207 -9.335704 
98.878754 87.397636 71.948517 87.231242 5.523665 92.222102 155.582147 -4.050204 -174.919902 -5.835307 -2.289795 -7.081357 61.702057 2.243256 -7.497877 21.454550 0.003093 -0.000000 -161.126048 -2.508899 178.705329 -11.457112 5.570609 6.807066 87.762207 -4.785575 0.149026 21.454555 -0.003107 -0.000016 7.728392 -0.499146 2.522568 5.419797 -1.115222 5.019315 5.102968 -1.084801 5.025943 -1.007590 0.261760 1.981916 -19.021133 3.969413 0.561834 -145.143118 -71.649347 -37.265283 1.378802 48.268035 44.951657 -26.189585 -11.297193 0.923562 11.365278 3.996683 35.555035 -163.296190 77.244372 18.510521 -22.854228 -56.126666 -22.362611 -42.102065 18.215853 -1.753000 5.249458 7.171474 -8.887311 
98.885330 86.404877 75.880302 87.233899 5.434869 93.728091 153.737327 -3.204109 -174.766673 -6.980061 -3.480582 -5.015795 63.413293 1.405044 -6.082540 21.454550 0.003087 -0.000002 -158.516765 -2.990402 179.598772 -11.470200 5.688839 6.799295 88.280994 -4.739341 0.422623 21.454560 -0.003112 -0.000016 7.780113 -0.618819 2.532549 5.517964 -1.357021 5.033154 5.201115 -1.326517 5.041242 -1.675124 -1.983079 0.937725 -19.173179 5.185997 -1.426541 -143.459272 -71.267587 -39.008935 1.865446 46.940328 45.055725 -25.702804 -10.988955 0.895813 13.264926 6.495361 38.428485 -160.808498 78.365492 21.032569 -22.561583 -56.967288 -21.008521 -44.102262 18.494796 -1.828973 4.567464 6.508990 -9.682962 
99.154289 85.267509 80.012833 87.747748 5.667812 95.371700 151.848520 -1.261913 -177.276194 -14.243237 -3.087667 -2.792075 60.026380 1.082947 -2.589568 21.454548 0.003093 -0.000003 -156.071790 -3.009799 -178.683363 -12.868494 5.668172 6.482474 88.899891 -4.394194 1.271973 21.454557 -0.003110 -0.000017 7.823704 -0.841547 2.552222 5.595410 -1.804890 5.061556 5.278503 -1.774180 5.072327 -0.961211 -4.051071 -0.380429 -19.832192 6.117322 -3.561305 -142.970080 -71.141925 -39.516288 1.856339 45.567317 45.097502 -24.766416 -10.616955 0.857174 13.247580 8.409368 39.948380 -158.435950 78.940854 23.437926 -20.164467 -57.827373 -22.046579 -46.110641 18.971658 -1.920974 4.085806 6.289520 -11.169016 
99.455360 84.503067 84.408890 88.241789 5.945053 95.078002 150.369360 -0.168102 176.679304 -22.659270 -0.652988 0.203001 59.298616 0.792282 1.906828 21.454553 0.003102 0.000003 -154.117891 -2.473995 -177.703190 -15.071313 5.158247 5.849490 87.192399 -3.793370 2.236470 21.454560 -0.003121 -0.000017 7.789904 -1.178952 2.920767 5.505289 -2.494756 5.783756 5.188648 -2.459701 5.798651 0.221200 -5.642783 -1.619217 -20.231855 7.383343 -5.610826 -140.043795 -70.379164 -42.554609 0.168258 44.233425 44.728611 -24.738477 -10.446667 0.845707 14.653828 10.529049 42.657571 -154.128696 78.773036 27.821678 -17.558188 -58.623261 -24.255188 -47.623713 19.102029 -1.976915 3.598513 5.924534 -12.538019 
99.957291 84.489662 88.511909 89.216136 5.991956 93.607702 150.629235 0.575501 175.543689 -27.319932 -0.126516 -0.430831 59.366536 2.533966 4.800083 21.454553 0.003086 -0.000000 -153.040934 -0.893491 -176.370183 -17.446945 4.159658 4.785293 83.588108 -2.970361 2.379034 21.454560 -0.003114 -0.000018 7.684290 -1.560671 3.213969 5.267257 -3.265115 6.356482 4.950756 -3.226604 6.376003 1.093832 -7.764533 -2.262907 -19.165466 8.776007 -7.047957 -137.407027 -68.284912 -45.365806 -1.515702 42.696527 45.309829 -25.461099 -10.574975 0.865156 15.047149 11.504345 42.608045 -154.057621 79.295600 27.881727 -14.688837 -59.530372 -26.713635 -48.383373 18.955383 -1.991409 3.210874 4.373057 -14.717164 
100.434700 84.518333 92.745033 90.013226 5.782378 92.957310 150.162979 0.824489 177.428780 -33.362838 -1.695039 -2.170024 63.480454 3.210391 3.804782 21.454551 0.003097 -0.000001 -154.447024 0.064811 -174.186804 -23.987799 2.412294 3.771919 78.705882 -2.409258 1.350817 21.454562 -0.003112 -0.000016 7.441800 -1.928463 3.187521 4.764051 -3.985479 6.297276 4.447224 -3.947298 6.321115 3.605239 -9.545370 -3.394714 -19.846990 10.008554 -8.867880 -139.084973 -66.473491 -43.724781 -1.922433 40.468943 44.433505 -25.060031 -10.192797 0.834129 13.603616 9.998539 42.641738 -157.639591 78.828456 24.249803 -11.527379 -60.217400 -29.557148 -47.689907 19.039485 -1.974856 2.817427 3.373295 -16.355513 
100.947304 84.983788 96.697166 91.073981 6.152090 92.748402 152.213156 1.202100 177.209722 -35.740683 -3.075021 -2.324995 67.451321 3.410143 4.447811 21.454553 0.003087 -0.000001 -157.991469 1.660397 -173.139585 -34.823446 1.073671 3.320351 74.001719 -1.486472 3.095601 21.454553 -0.003104 -0.000016 7.502462 -2.309160 2.987914 4.874449 -4.741188 5.881513 4.557022 -4.705508 5.909958 4.096094 -11.241536 -4.308572 -18.058397 11.553038 -10.401941 -139.991940 -66.224920 -42.799980 -3.548994 40.851307 43.461344 -23.616011 -9.966815 0.798054 12.287749 7.563893 40.832309 -156.953950 78.389603 24.955624 -11.526322 -61.869732 -29.590524 -45.325064 18.785834 -1.884699 2.989929 2.993213 -16.473574 
101.481499 86.047249 100.475098 91.400116 6.207942 92.407200 155.397978 1.297804 174.746947 -35.265957 -2.442641 -1.242760 70.064627 2.588449 4.730174 21.454551 0.003095 0.000001 -164.046336 2.517299 -172.859903 -47.442699 -0.299981 4.481736 68.120332 -1.239565 5.610281 21.454557 -0.003118 -0.000016 7.470979 -2.444665 2.707036 4.817591 -4.999014 5.315654 4.499689 -4.966737 5.345692 4.588552 -12.149538 -5.326761 -16.702427 11.842342 -11.466858 -141.868193 -66.770864 -40.837179 -4.663581 42.451101 41.506455 -23.451159 -9.931867 0.793464 11.912307 5.611265 41.930904 -155.217524 77.604582 26.740126 -12.722743 -62.939121 -29.448425 -42.176336 18.217516 -1.755202 3.455318 2.925861 -16.364078 
102.023598 87.306000 104.040703 91.404815 6.183833 92.484491 159.136536 1.648891 175.136091 -32.964197 -2.684778 -1.323382 71.552775 2.515449 4.550856 21.454550 0.003090 -0.000001 -170.899037 3.036100 -172.592146 -58.456932 -0.852746 6.547319 65.159827 -2.624808 5.512912 21.454558 -0.003109 -0.000017 7.412668 -2.335483 2.223393 4.726032 -4.759090 4.353945 4.407754 -4.732583 4.382593 5.540713 -13.845961 -6.411247 -15.704936 12.497395 -12.810873 -145.221201 -66.706742 -37.374911 -6.448259 43.750705 40.272117 -24.300840 -10.371100 0.834259 12.418972 4.975277 44.089670 -154.678786 77.377471 27.294107 -12.872589 -63.737700 -29.571553 -39.989914 17.855238 -1.671468 4.423018 1.882537 -16.523717 
102.530197 88.468933 107.564598 91.339150 6.142960 92.756510 163.046697 2.157695 176.216709 -30.029555 -2.829427 -1.697719 72.596926 2.668106 4.352505 21.454551 0.003085 -0.000001 -178.037241 3.544206 -171.280299 -67.443774 -2.202165 7.998658 68.985546 -3.769821 5.587009 21.454557 -0.003114 -0.000013 7.352890 -2.176695 1.674673 4.633392 -4.418136 3.263946 4.314833 -4.398219 3.290573 6.427212 -15.110007 -7.599620 -14.937226 13.409892 -14.297458 -147.781497 -67.584899 -34.696292 -9.312038 45.889831 38.856717 -25.173794 -10.862265 0.879301 11.877543 4.816012 44.591894 -156.959222 76.673375 24.983500 -11.550211 -63.472497 -30.624912 -39.041150 17.788639 -1.642060 5.427279 0.039705 -16.818463 
